<svg width="117" height="29" viewBox="0 0 117 29" fill="none" xmlns="http://www.w3.org/2000/svg">
<path d="M20.9844 1.55469C20.7109 2.17969 20.4668 2.72656 20.252 3.19531C20.0371 3.66406 19.8516 4.06445 19.6953 4.39648C19.5195 4.76758 19.373 5.09961 19.2559 5.39258C19.1582 5.60742 19.0312 5.90039 18.875 6.27148C18.7188 6.60352 18.5234 7.04297 18.2891 7.58984C18.0742 8.11719 17.791 8.80078 17.4395 9.64062C17.2637 8.91797 17.0488 8.2832 16.7949 7.73633C16.541 7.18945 16.2676 6.71094 15.9746 6.30078C15.6816 5.89062 15.3691 5.55859 15.0371 5.30469C14.7246 5.03125 14.4121 4.80664 14.0996 4.63086C13.377 4.24023 12.6152 4.02539 11.8145 3.98633C10.7598 4.04492 9.92969 4.2207 9.32422 4.51367C8.73828 4.78711 8.30859 5.10938 8.03516 5.48047C7.76172 5.83203 7.61523 6.20312 7.5957 6.59375C7.57617 6.96484 7.625 7.27734 7.74219 7.53125C7.83984 7.76562 8.18164 8.03906 8.76758 8.35156C9.37305 8.66406 10.0957 9.02539 10.9355 9.43555C11.7949 9.82617 12.7129 10.2754 13.6895 10.7832C14.666 11.2715 15.5645 11.8184 16.3848 12.4238C17.2246 13.0098 17.9277 13.6543 18.4941 14.3574C19.0801 15.041 19.4023 15.7734 19.4609 16.5547C19.5195 17.5508 19.5098 18.4492 19.4316 19.25C19.3535 20.0508 19.0801 20.7344 18.6113 21.3008C18.1426 21.8672 17.4102 22.3164 16.4141 22.6484C15.4375 22.9805 14.0801 23.1855 12.3418 23.2637C10.5449 23.3418 9.07031 23.2441 7.91797 22.9707C6.76562 22.6973 5.82812 22.3262 5.10547 21.8574C4.40234 21.3887 3.875 20.8711 3.52344 20.3047C3.19141 19.7383 2.94727 19.2012 2.79102 18.6934C2.63477 18.166 2.52734 17.7168 2.46875 17.3457C2.41016 16.9551 2.3125 16.7207 2.17578 16.6426C2.01953 16.5449 1.86328 16.457 1.70703 16.3789C1.57031 16.3008 1.42383 16.2324 1.26758 16.1738C1.11133 16.0957 0.955078 16.0273 0.798828 15.9688L9.32422 14.5918C8.83594 14.9824 8.45508 15.3438 8.18164 15.6758C7.92773 16.0078 7.73242 16.3008 7.5957 16.5547C7.43945 16.8477 7.33203 17.1211 7.27344 17.375C7.23438 17.6484 7.32227 17.9902 7.53711 18.4004C7.75195 18.8105 8.04492 19.2109 8.41602 19.6016C8.80664 19.9727 9.25586 20.2852 9.76367 20.5391C10.2715 20.793 10.7988 20.9004 11.3457 20.8613C12.0293 20.8027 12.5859 20.6367 13.0156 20.3633C13.4453 20.0703 13.7676 19.709 13.9824 19.2793C14.2168 18.8496 14.3535 18.3809 14.3926 17.873C14.4316 17.3652 14.3828 16.8672 14.2461 16.3789C14.1289 15.8711 13.9336 15.4023 13.6602 14.9727C13.3867 14.5234 13.0645 14.1523 12.6934 13.8594C12.3613 13.625 11.8438 13.4004 11.1406 13.1855C10.457 12.9707 9.68555 12.7363 8.82617 12.4824C7.98633 12.2285 7.11719 11.9355 6.21875 11.6035C5.33984 11.2715 4.53906 10.8613 3.81641 10.373C3.11328 9.88477 2.54688 9.30859 2.11719 8.64453C1.70703 7.98047 1.55078 7.17969 1.64844 6.24219C1.72656 5.44141 1.98047 4.77734 2.41016 4.25C2.85938 3.70313 3.41602 3.27344 4.08008 2.96094C4.76367 2.62891 5.51562 2.38477 6.33594 2.22852C7.17578 2.07227 8.02539 1.98437 8.88477 1.96484C9.76367 1.92578 10.623 1.93555 11.4629 1.99414C12.3223 2.05273 13.0938 2.12109 13.7773 2.19922C14.4609 2.27734 15.0371 2.35547 15.5059 2.43359C15.9941 2.49219 16.2969 2.53125 16.4141 2.55078C16.9219 2.58984 17.4297 2.58008 17.9375 2.52148C18.3867 2.48242 18.875 2.39453 19.4023 2.25781C19.9492 2.10156 20.4766 1.86719 20.9844 1.55469ZM21.4238 9.52344C21.9316 9.62109 22.3711 9.69922 22.7422 9.75781C23.1328 9.79688 23.4648 9.83594 23.7383 9.875C24.0508 9.91406 24.3242 9.94336 24.5586 9.96289C24.793 9.98242 25.0664 10.002 25.3789 10.0215C25.9062 10.041 26.6484 10.041 27.6055 10.0215C27.0391 9.98242 26.5898 10.1289 26.2578 10.4609C25.9453 10.7734 25.7109 11.1348 25.5547 11.5449C25.3594 12.0332 25.252 12.5996 25.2324 13.2441C25.1934 14.1035 25.2129 14.8848 25.291 15.5879C25.3887 16.2715 25.5547 16.8574 25.7891 17.3457C26.043 17.8145 26.375 18.166 26.7852 18.4004C27.1953 18.6152 27.7227 18.6738 28.3672 18.5762C29.0117 18.4785 29.5 18.2539 29.832 17.9023C30.1836 17.5312 30.4375 17.082 30.5938 16.5547C30.75 16.0078 30.8379 15.3926 30.8574 14.709C30.8965 14.0254 30.9258 13.3125 30.9453 12.5703C30.9453 11.8281 30.9355 11.3008 30.916 10.9883C30.916 10.6562 30.9062 10.4414 30.8867 10.3438C30.8672 10.2461 30.8379 10.207 30.7988 10.2266C30.7598 10.2266 30.7109 10.1777 30.6523 10.0801C30.6133 10.002 30.5547 9.92383 30.4766 9.8457C30.418 9.76758 30.3398 9.67969 30.2422 9.58203C30.1445 9.46484 30.0371 9.34766 29.9199 9.23047C30.4277 9.25 30.877 9.26953 31.2676 9.28906C31.6777 9.28906 32.0195 9.29883 32.293 9.31836C32.6055 9.33789 32.8789 9.35742 33.1133 9.37695C33.3281 9.39648 33.6113 9.42578 33.9629 9.46484C34.2559 9.50391 34.6367 9.54297 35.1055 9.58203C35.5742 9.62109 36.1309 9.67969 36.7754 9.75781C36.3262 9.85547 35.9648 10.002 35.6914 10.1973C35.418 10.3926 35.2031 10.5879 35.0469 10.7832C34.8711 10.998 34.7441 11.2324 34.666 11.4863C34.6074 11.8184 34.6074 12.3262 34.666 13.0098C34.7051 13.6152 34.8027 14.4453 34.959 15.5C35.1152 16.5547 35.3594 17.9414 35.6914 19.6602L33.377 21.0371L32.9082 17.1406C32.3418 18.0977 31.7363 18.8398 31.0918 19.3672C30.4668 19.875 29.8809 20.2461 29.334 20.4805C28.6895 20.7539 28.0645 20.9102 27.459 20.9492C26.6582 20.9492 25.9648 20.9004 25.3789 20.8027C24.8125 20.6855 24.3242 20.5391 23.9141 20.3633C23.5039 20.1875 23.1719 19.9922 22.918 19.7773C22.6836 19.543 22.5078 19.3086 22.3906 19.0742C22.1172 18.5859 21.9707 17.9609 21.9512 17.1992C21.9316 16.418 21.9609 15.6465 22.0391 14.8848C22.1172 14.1035 22.2051 13.3906 22.3027 12.7461C22.4004 12.1016 22.4297 11.6621 22.3906 11.4277C22.3516 11.252 22.293 11.0566 22.2148 10.8418C22.1367 10.666 22.0391 10.4707 21.9219 10.2559C21.8047 10.0215 21.6387 9.77734 21.4238 9.52344ZM36.3359 9.34766C36.9609 9.25 37.4688 9.17188 37.8594 9.11328C38.2695 9.03516 38.6016 8.97656 38.8555 8.9375C39.1484 8.87891 39.373 8.83008 39.5293 8.79102C39.6855 8.75195 39.9102 8.69336 40.2031 8.61523C40.457 8.53711 40.7891 8.44922 41.1992 8.35156C41.6094 8.23438 42.127 8.07812 42.752 7.88281C42.5957 8.07812 42.4688 8.25391 42.3711 8.41016C42.293 8.54688 42.2148 8.66406 42.1367 8.76172C42.0586 8.87891 41.9902 8.98633 41.9316 9.08398C41.873 9.18164 41.8145 9.32812 41.7559 9.52344C41.7168 9.67969 41.668 9.9043 41.6094 10.1973C41.5508 10.4707 41.502 10.832 41.4629 11.2812C42.5176 10.6172 43.4844 10.1191 44.3633 9.78711C45.2617 9.45508 46.043 9.2207 46.707 9.08398C47.4883 8.92773 48.1914 8.86914 48.8164 8.9082C49.5977 8.9668 50.3203 9.14258 50.9844 9.43555C51.668 9.70898 52.2832 10.041 52.8301 10.4316C53.377 10.8223 53.8555 11.252 54.2656 11.7207C54.6758 12.1895 54.998 12.6582 55.2324 13.127C55.3887 13.4395 55.4863 13.8887 55.5254 14.4746C55.584 15.0605 55.5254 15.6855 55.3496 16.3496C55.1738 17.0137 54.8613 17.668 54.4121 18.3125C53.9824 18.9375 53.3672 19.4355 52.5664 19.8066C51.1797 20.4316 49.8027 20.7832 48.4355 20.8613C47.8496 20.9004 47.2441 20.8809 46.6191 20.8027C46.0137 20.7246 45.3984 20.5586 44.7734 20.3047C44.168 20.0508 43.582 19.6895 43.0156 19.2207C42.4492 18.7324 41.9316 18.1074 41.4629 17.3457C41.3066 18.3418 41.1895 19.2109 41.1113 19.9531C41.0527 20.6758 41.0137 21.2812 40.9941 21.7695C40.9746 22.3359 40.9746 22.8145 40.9941 23.2051C41.0332 23.5957 41.1113 24.0156 41.2285 24.4648C41.3262 24.8555 41.4629 25.3047 41.6387 25.8125C41.834 26.3398 42.0781 26.8867 42.3711 27.4531C42.2539 27.4141 42.0879 27.3848 41.873 27.3652C41.6777 27.3652 41.4727 27.3848 41.2578 27.4238C41.0234 27.4629 40.7598 27.502 40.4668 27.541C40.1934 27.5996 39.8906 27.668 39.5586 27.7461C39.2852 27.8047 38.9629 27.873 38.5918 27.9512C38.2402 28.0488 37.8789 28.1562 37.5078 28.2734C37.7227 28.0195 37.8887 27.7266 38.0059 27.3945C38.1426 27.082 38.25 26.7891 38.3281 26.5156C38.4062 26.1836 38.4746 25.8516 38.5332 25.5195C38.5527 25.2266 38.582 24.6699 38.6211 23.8496C38.6797 23.0488 38.7285 22.1211 38.7676 21.0664C38.8066 19.9922 38.8359 18.8691 38.8555 17.6973C38.8945 16.5254 38.9141 15.4414 38.9141 14.4453C38.9336 13.4297 38.9336 12.5703 38.9141 11.8672C38.8945 11.1641 38.8555 10.7539 38.7969 10.6367C38.7188 10.5 38.5723 10.3535 38.3574 10.1973C38.1816 10.0605 37.9277 9.92383 37.5957 9.78711C37.2832 9.65039 36.8633 9.50391 36.3359 9.34766ZM43.3086 14.6797C43.1719 15.1289 43.1426 15.5684 43.2207 15.998C43.2988 16.4277 43.4941 16.8281 43.8066 17.1992C44.1387 17.5703 44.5977 17.9023 45.1836 18.1953C45.7891 18.4688 46.541 18.6738 47.4395 18.8105C48.3379 18.9473 49.0215 18.9277 49.4902 18.752C49.959 18.5762 50.3008 18.3027 50.5156 17.9316C50.75 17.541 50.9062 17.0918 50.9844 16.584C51.0625 16.0566 51.1602 15.5098 51.2773 14.9434C51.3945 14.3965 51.375 13.8398 51.2188 13.2734C51.0625 12.6875 50.8379 12.1602 50.5449 11.6914C50.2715 11.2227 49.959 10.8418 49.6074 10.5488C49.2754 10.2363 48.9824 10.0801 48.7285 10.0801C48.123 10.0801 47.5273 10.2363 46.9414 10.5488C46.3555 10.8613 45.8184 11.252 45.3301 11.7207C44.8418 12.1895 44.4121 12.6973 44.041 13.2441C43.6895 13.7715 43.4453 14.25 43.3086 14.6797ZM56.4336 8.9668C56.8047 8.98633 57.1367 8.99609 57.4297 8.99609C57.7422 8.97656 58.0059 8.95703 58.2207 8.9375C58.4746 8.91797 58.6992 8.89844 58.8945 8.87891C59.1875 8.83984 59.4902 8.79102 59.8027 8.73242C60.0762 8.69336 60.3594 8.64453 60.6523 8.58594C60.9648 8.50781 61.2676 8.41992 61.5605 8.32227C61.4434 8.61523 61.3457 8.86914 61.2676 9.08398C61.1895 9.29883 61.1309 9.48438 61.0918 9.64062C61.0332 9.81641 61.0039 9.96289 61.0039 10.0801C60.9844 10.2168 60.9746 10.3828 60.9746 10.5781C60.9551 10.9102 60.9551 11.4473 60.9746 12.1895C61.9902 11.3105 62.8398 10.627 63.5234 10.1387C64.2266 9.65039 64.7832 9.26953 65.1934 8.99609C65.6816 8.68359 66.0625 8.47852 66.3359 8.38086C67.0586 8.26367 67.6934 8.42969 68.2402 8.87891C68.4746 9.07422 68.6992 9.33789 68.9141 9.66992C69.1289 9.98242 69.3145 10.4023 69.4707 10.9297C69.627 11.457 69.7441 12.0918 69.8223 12.834C69.9004 13.5566 69.9102 14.4258 69.8516 15.4414C69.4414 15.4805 69.0703 15.5195 68.7383 15.5586C68.4258 15.5977 68.1621 15.627 67.9473 15.6465C67.6934 15.6855 67.459 15.7051 67.2441 15.7051L66.4531 15.793C66.1797 15.832 65.8379 15.8711 65.4277 15.9102C65.0371 15.9297 64.5586 15.9688 63.9922 16.0273C64.8125 15.3633 65.3398 14.7871 65.5742 14.2988C65.8281 13.791 65.9355 13.3711 65.8965 13.0391C65.8574 12.668 65.6816 12.3457 65.3691 12.0723C64.998 11.8574 64.5977 11.7793 64.168 11.8379C63.7969 11.877 63.3672 12.043 62.8789 12.3359C62.3906 12.6289 61.873 13.1758 61.3262 13.9766C61.3652 15.2266 61.4043 16.2617 61.4434 17.082C61.502 17.9023 61.5508 18.5664 61.5898 19.0742C61.6484 19.6602 61.6973 20.1191 61.7363 20.4512C61.7949 20.7441 61.9121 21.0566 62.0879 21.3887C62.2246 21.6621 62.4199 21.9648 62.6738 22.2969C62.9277 22.6289 63.2598 22.9609 63.6699 23.293C62.8105 23.2539 62.1074 23.2539 61.5605 23.293C61.2285 23.3125 60.9355 23.332 60.6816 23.3516C60.4082 23.3906 60.1152 23.4297 59.8027 23.4688C59.5293 23.5078 59.207 23.5469 58.8359 23.5859C58.4844 23.6445 58.0938 23.7031 57.6641 23.7617C57.8203 23.5469 57.9473 23.293 58.0449 23C58.1426 22.7266 58.2207 22.4629 58.2793 22.209C58.3574 21.916 58.416 21.6133 58.4551 21.3008C58.4746 21.0273 58.4844 20.6172 58.4844 20.0703C58.5039 19.5234 58.4941 18.9082 58.4551 18.2246C58.4355 17.5215 58.4062 16.7988 58.3672 16.0566C58.3281 15.2949 58.2793 14.582 58.2207 13.918C58.1621 13.2539 58.0938 12.6777 58.0156 12.1895C57.957 11.6816 57.8887 11.3301 57.8105 11.1348C57.7129 10.9004 57.5957 10.666 57.459 10.4316C57.3418 10.2168 57.1953 9.99219 57.0195 9.75781C56.8438 9.50391 56.6484 9.24023 56.4336 8.9668ZM78.6992 18.2832C79.2461 18.2832 79.7539 18.2246 80.2227 18.1074C80.6133 18.0098 80.9844 17.8535 81.3359 17.6387C81.707 17.4043 81.9512 17.0625 82.0684 16.6133C82.459 16.6914 82.791 16.7598 83.0645 16.8184C83.3379 16.8574 83.5723 16.8965 83.7676 16.9355C83.9824 16.9941 84.168 17.0332 84.3242 17.0527C84.4805 17.0918 84.666 17.1309 84.8809 17.1699C85.0762 17.209 85.3105 17.2578 85.584 17.3164C85.877 17.3555 86.2188 17.4141 86.6094 17.4922C86.3164 17.4531 86.0137 17.4824 85.7012 17.5801C85.4082 17.6777 85.125 17.7852 84.8516 17.9023C84.5391 18.0391 84.2461 18.2051 83.9727 18.4004C83.7969 18.5176 83.5918 18.6934 83.3574 18.9277C83.1426 19.1621 82.8301 19.3867 82.4199 19.6016C82.0098 19.8164 81.4629 20.002 80.7793 20.1582C80.1152 20.2949 79.2559 20.3438 78.2012 20.3047C76.9316 20.2656 75.8672 20.041 75.0078 19.6309C74.1484 19.2012 73.4551 18.6836 72.9277 18.0781C72.4004 17.4531 72.0195 16.7793 71.7852 16.0566C71.5508 15.334 71.4238 14.6602 71.4043 14.0352C71.3848 13.4102 71.5703 12.7559 71.9609 12.0723C72.3516 11.3887 72.8984 10.7637 73.6016 10.1973C74.3242 9.63086 75.1934 9.17188 76.209 8.82031C77.2246 8.44922 78.3379 8.26367 79.5488 8.26367C80.252 8.26367 80.8965 8.35156 81.4824 8.52734C82.0879 8.68359 82.6348 8.89844 83.123 9.17188C83.6309 9.44531 84.0703 9.75781 84.4414 10.1094C84.8125 10.4414 85.125 10.7832 85.3789 11.1348C85.6328 11.5059 85.8477 11.8965 86.0234 12.3066C86.1797 12.6582 86.3066 13.0586 86.4043 13.5078C86.502 13.957 86.5312 14.416 86.4922 14.8848C85.0078 14.9238 83.8066 14.9531 82.8887 14.9727C81.9902 14.9922 81.2871 15.002 80.7793 15.002H79.4609H78.4648C78.1133 15.002 77.6543 15.0117 77.0879 15.0312C76.5215 15.0508 75.8281 15.0801 75.0078 15.1191C75.1055 15.9004 75.3496 16.5059 75.7402 16.9355C76.1504 17.3457 76.5801 17.6582 77.0293 17.873C77.5371 18.1074 78.0938 18.2441 78.6992 18.2832ZM76.0625 13.0098C76.6875 13.0488 77.2051 13.0781 77.6152 13.0977C78.0449 13.1172 78.3965 13.1367 78.6699 13.1562C78.9629 13.1758 79.1973 13.1855 79.373 13.1855H80.1055C80.5938 13.1855 81.502 13.1562 82.8301 13.0977C82.7715 12.2383 82.5859 11.584 82.2734 11.1348C81.9805 10.6855 81.668 10.3535 81.3359 10.1387C80.9453 9.9043 80.5156 9.76758 80.0469 9.72852C78.7773 9.74805 77.8301 10.0117 77.2051 10.5195C76.5996 11.0273 76.2188 11.8574 76.0625 13.0098ZM100.584 6.27148C100.408 6.70117 100.252 7.0918 100.115 7.44336C99.998 7.79492 99.8906 8.10742 99.793 8.38086C99.6953 8.69336 99.6074 8.9668 99.5293 9.20117C99.4512 9.47461 99.3633 9.78711 99.2656 10.1387C99.168 10.4512 99.041 10.8418 98.8848 11.3105C98.748 11.7598 98.582 12.2969 98.3867 12.9219C98.2305 11.9844 97.9473 11.2422 97.5371 10.6953C97.127 10.1289 96.707 9.68945 96.2773 9.37695C95.7695 9.02539 95.2227 8.77148 94.6367 8.61523C93.582 8.43945 92.8203 8.45898 92.3516 8.67383C91.8828 8.88867 91.5703 9.16211 91.4141 9.49414C91.3359 9.63086 91.248 9.80664 91.1504 10.0215C91.0723 10.2168 91.0039 10.4219 90.9453 10.6367C90.9062 10.8516 90.8965 11.0664 90.916 11.2812C90.9355 11.4961 91.0234 11.6719 91.1797 11.8086C91.2773 11.9062 91.5312 12.043 91.9414 12.2188C92.3516 12.375 92.8398 12.5605 93.4062 12.7754C93.9922 12.9707 94.6074 13.1855 95.252 13.4199C95.916 13.6543 96.541 13.8887 97.127 14.123C97.7129 14.3574 98.2207 14.5918 98.6504 14.8262C99.0801 15.0605 99.3633 15.2754 99.5 15.4707C99.6172 15.666 99.7441 15.9297 99.8809 16.2617C100.037 16.5742 100.145 16.9258 100.203 17.3164C100.281 17.6875 100.301 18.0781 100.262 18.4883C100.242 18.8789 100.135 19.2695 99.9395 19.6602C99.7441 20.0508 99.4316 20.4121 99.002 20.7441C98.5918 21.0762 98.0352 21.3496 97.332 21.5645C96.5117 21.8184 95.7207 21.8867 94.959 21.7695C94.1973 21.6523 93.4941 21.4766 92.8496 21.2422C92.2246 21.0078 91.6777 20.7832 91.209 20.5684C90.7402 20.334 90.4082 20.2363 90.2129 20.2754C89.998 20.3145 89.7539 20.4219 89.4805 20.5977C89.207 20.7734 88.9434 20.959 88.6895 21.1543C88.4551 21.3301 88.25 21.4961 88.0742 21.6523C87.8984 21.7891 87.8105 21.8379 87.8105 21.7988C87.8105 21.7598 87.8398 21.6426 87.8984 21.4473C87.9766 21.252 88.0547 21.0176 88.1328 20.7441C88.2305 20.4512 88.3184 20.1387 88.3965 19.8066C88.4941 19.4551 88.5625 19.123 88.6016 18.8105C88.6406 18.5566 88.6895 18.2441 88.748 17.873C88.7871 17.541 88.8359 17.1406 88.8945 16.6719C88.9727 16.1836 89.0605 15.5977 89.1582 14.9141C89.2559 15.4219 89.3926 15.8613 89.5684 16.2324C89.7637 16.6035 89.9492 16.9258 90.125 17.1992C90.3398 17.5117 90.5449 17.7754 90.7402 17.9902C91.0332 18.2637 91.375 18.5176 91.7656 18.752C92.1758 18.9863 92.5859 19.1914 92.9961 19.3672C93.4062 19.5234 93.7969 19.6211 94.168 19.6602C94.5391 19.6992 94.8516 19.6602 95.1055 19.543C95.3594 19.4258 95.5742 19.2109 95.75 18.8984C95.9453 18.5859 96.082 18.2441 96.1602 17.873C96.2383 17.502 96.2676 17.1504 96.248 16.8184C96.2285 16.4668 96.1406 16.1836 95.9844 15.9688C95.8672 15.832 95.5938 15.6562 95.1641 15.4414C94.7539 15.2266 94.2559 14.9922 93.6699 14.7383C93.1035 14.4844 92.498 14.2207 91.8535 13.9473C91.2285 13.6738 90.6328 13.4004 90.0664 13.127C89.5195 12.834 89.0605 12.5605 88.6895 12.3066C88.3379 12.0332 88.1426 11.7891 88.1035 11.5742C88.0645 11.2617 88.0352 10.9199 88.0156 10.5488C87.9961 10.1582 88.0156 9.77734 88.0742 9.40625C88.1523 9.01562 88.2891 8.64453 88.4844 8.29297C88.6992 7.94141 89.0117 7.64844 89.4219 7.41406C89.6953 7.25781 90.0566 7.14062 90.5059 7.0625C90.9551 6.98438 91.4531 6.94531 92 6.94531C92.5469 6.92578 93.1133 6.94531 93.6992 7.00391C94.2852 7.04297 94.8418 7.10156 95.3691 7.17969C95.916 7.23828 96.4043 7.31641 96.834 7.41406C97.2832 7.51172 97.625 7.59961 97.8594 7.67773C98.1328 7.77539 98.4258 7.78516 98.7383 7.70703C99.0117 7.64844 99.3047 7.52148 99.6172 7.32617C99.9297 7.13086 100.252 6.7793 100.584 6.27148ZM101.492 0.792969C101.941 0.871094 102.352 0.929687 102.723 0.96875C103.094 0.988281 103.406 1.00781 103.66 1.02734C103.953 1.04687 104.207 1.05664 104.422 1.05664C104.715 1.03711 105.057 1.00781 105.447 0.96875C105.779 0.929687 106.18 0.880859 106.648 0.822266C107.137 0.763672 107.693 0.685547 108.318 0.587891C108.025 0.744141 107.781 0.900391 107.586 1.05664C107.391 1.19336 107.234 1.33984 107.117 1.49609C106.98 1.67188 106.873 1.83789 106.795 1.99414C106.697 2.24805 106.59 2.77539 106.473 3.57617C106.355 4.25977 106.209 5.27539 106.033 6.62305C105.877 7.9707 105.672 9.79688 105.418 12.1016C106.121 11.3984 106.785 10.8711 107.41 10.5195C108.055 10.1484 108.621 9.88477 109.109 9.72852C109.676 9.55273 110.203 9.46484 110.691 9.46484C111.297 9.52344 111.912 9.71875 112.537 10.0508C113.182 10.3633 113.777 10.7344 114.324 11.1641C114.891 11.5938 115.379 12.0527 115.789 12.541C116.219 13.0293 116.521 13.459 116.697 13.8301C116.814 14.084 116.873 14.416 116.873 14.8262C116.873 15.2168 116.834 15.6465 116.756 16.1152C116.678 16.584 116.57 17.0625 116.434 17.5508C116.297 18.0391 116.16 18.498 116.023 18.9277C115.906 19.3574 115.799 19.7383 115.701 20.0703C115.604 20.3828 115.545 20.6074 115.525 20.7441C115.486 21.0371 115.506 21.3203 115.584 21.5938C115.643 21.8281 115.76 22.082 115.936 22.3555C116.111 22.6094 116.375 22.8242 116.727 23C116.453 22.9609 116.16 22.9316 115.848 22.9121C115.555 22.873 115.271 22.8438 114.998 22.8242C114.686 22.8047 114.373 22.7949 114.061 22.7949H113.006C112.674 22.7949 112.293 22.8047 111.863 22.8242C111.434 22.8242 110.965 22.834 110.457 22.8535C110.73 22.7559 110.965 22.6289 111.16 22.4727C111.355 22.2969 111.521 22.1309 111.658 21.9746C111.814 21.7988 111.951 21.6133 112.068 21.418C112.146 21.2617 112.244 20.9688 112.361 20.5391C112.479 20.0898 112.586 19.582 112.684 19.0156C112.781 18.4297 112.85 17.8145 112.889 17.1699C112.947 16.5254 112.957 15.9102 112.918 15.3242C112.898 14.7188 112.811 14.1816 112.654 13.7129C112.518 13.2441 112.303 12.9023 112.01 12.6875C111.131 12.0234 110.33 11.7012 109.607 11.7207C108.904 11.7207 108.23 12.0039 107.586 12.5703C107.352 12.7852 107.127 13 106.912 13.2148C106.717 13.4102 106.502 13.6445 106.268 13.918C106.033 14.1719 105.818 14.4355 105.623 14.709C105.623 15.002 105.633 15.3242 105.652 15.6758C105.672 16.0273 105.691 16.3691 105.711 16.7012C105.73 17.0723 105.76 17.4434 105.799 17.8145C105.838 18.3809 105.896 18.9375 105.975 19.4844C106.033 19.9531 106.111 20.4707 106.209 21.0371C106.307 21.584 106.434 22.082 106.59 22.5312C106.336 22.4922 106.072 22.4824 105.799 22.502C105.525 22.502 105.262 22.502 105.008 22.502C104.715 22.5215 104.432 22.5312 104.158 22.5312C103.904 22.5508 103.641 22.5801 103.367 22.6191C103.133 22.6582 102.879 22.6973 102.605 22.7363C102.332 22.7559 102.068 22.7949 101.814 22.8535C102.049 22.4043 102.244 21.9648 102.4 21.5352C102.557 21.0859 102.684 20.6953 102.781 20.3633C102.898 19.9727 102.996 19.5918 103.074 19.2207C103.133 18.9277 103.172 18.3711 103.191 17.5508C103.23 16.7109 103.26 15.7539 103.279 14.6797C103.299 13.5859 103.309 12.4336 103.309 11.2227C103.309 10.0117 103.299 8.85938 103.279 7.76562C103.26 6.67187 103.221 5.71484 103.162 4.89453C103.123 4.07422 103.074 3.50781 103.016 3.19531C102.938 2.88281 102.83 2.57031 102.693 2.25781C102.576 1.98437 102.42 1.7207 102.225 1.4668C102.029 1.19336 101.785 0.96875 101.492 0.792969Z" fill="url(#paint0_linear_2_2)"/>
<defs>
<linearGradient id="paint0_linear_2_2" x1="2" y1="16" x2="128" y2="16" gradientUnits="userSpaceOnUse">
<stop stop-color="#DF8908" stop-opacity="0.5041"/>
<stop offset="1" stop-color="#B415FF" stop-opacity="0.9"/>
</linearGradient>
</defs>
</svg>
